<?xml version="1.0" encoding="UTF-8"?>
<svg id="Layer_1" xmlns="http://www.w3.org/2000/svg" version="1.1" viewBox="0 0 322.36 57.26">
  <!-- Generator: Adobe Illustrator 30.2.1, SVG Export Plug-In . SVG Version: 2.1.1 Build 1)  -->
  <defs>
    <style>
      .st0 {
        fill: #fff;
      }
    </style>
  </defs>
  <path class="st0" d="M27.74,26.77c2.71-2.46,4.07-5.59,4.07-9.39,0-4.14-1.44-7.45-4.34-9.92-2.89-2.47-6.41-3.71-10.55-3.71H0v41h10.42v-14.29h3.16l9.35,14.29h12.08l-11.01-15.58c1.37-.6,2.62-1.39,3.73-2.4ZM10.42,12.85h5.67c1.47,0,2.71.5,3.74,1.5,1.02,1,1.53,2.2,1.53,3.59,0,1.58-.53,2.88-1.6,3.88-1.07,1-2.37,1.51-3.89,1.51h-5.44v-10.48Z"/>
  <path class="st0" d="M62.54,17.32c-2.51-2.08-6.09-3.12-10.75-3.12-1.68,0-3.32.16-4.91.49-1.59.32-3.04.8-4.34,1.43-1.3.63-3.06,1.75-5.3,3.35l4.61,5.38c1.16-.96,2.18-1.65,3.04-2.09.86-.44,1.7-.77,2.53-1,.83-.23,1.86-.34,3.08-.34,1.87,0,3.32.42,4.35,1.26,1.03.84,1.55,2.02,1.55,3.55v1.72c-.97-.42-2.09-.76-3.34-1.03-1.25-.27-2.6-.4-4.05-.4-3.78,0-6.83.88-9.16,2.63-2.33,1.76-3.49,4.17-3.49,7.24,0,2.82.95,5.1,2.84,6.81,1.89,1.72,4.42,2.58,7.59,2.58,2.18,0,4.09-.42,5.74-1.27,1.65-.85,2.89-1.89,3.71-3.14h.2v3.38h9.88v-18.44c0-3.91-1.25-6.91-3.77-8.99ZM54.73,37.56c-1.12,1.32-2.6,1.98-4.45,1.98-1.41,0-2.54-.35-3.38-1.05-.84-.7-1.26-1.71-1.26-3.05,0-1.53.53-2.66,1.58-3.41,1.05-.74,2.39-1.12,4.01-1.12,1.03,0,1.98.1,2.86.31.88.21,1.65.48,2.32.8,0,2.37-.56,4.21-1.68,5.53Z"/>
  <polygon class="st0" points="85.77 29.46 84.77 32.72 84.54 32.72 83.6 29.49 78.13 15.23 67.62 15.23 79.49 42.65 72.72 57.26 83.48 57.26 101.18 15.23 91.04 15.23 85.77 29.46"/>
  <path class="st0" d="M143,14.2c-2,0-3.88.42-5.64,1.26-1.76.84-3.23,2.18-4.44,4.01-.71-1.66-1.86-2.95-3.48-3.88-1.61-.93-3.44-1.39-5.48-1.39s-4,.5-5.71,1.49-2.97,2.27-3.79,3.83h-.2v-4.29h-9.88v29.52h10.31v-16.35c0-1.72.46-3.14,1.37-4.25.92-1.12,2.09-1.68,3.52-1.68s2.55.45,3.31,1.34c.75.9,1.13,2.22,1.13,3.98v16.95h10.31v-16.38c0-1.72.46-3.12,1.37-4.22.92-1.1,2.09-1.65,3.52-1.65s2.58.44,3.32,1.33c.75.89,1.12,2.2,1.12,3.94v16.98h10.28v-18.87c0-3.68-.91-6.55-2.74-8.6-1.82-2.05-4.56-3.08-8.2-3.08Z"/>
  <path class="st0" d="M165.71,0c-1.59,0-2.92.52-4,1.57-1.08,1.05-1.62,2.38-1.62,3.98s.54,2.88,1.62,3.95c1.08,1.07,2.41,1.61,4,1.61s2.96-.54,4.02-1.61c1.06-1.07,1.59-2.38,1.59-3.95s-.53-2.93-1.59-3.98C168.67.52,167.33,0,165.71,0Z"/>
  <rect class="st0" x="160.55" y="15.23" width="10.3" height="29.52"/>
  <path class="st0" d="M197.66,14.2c-1.87,0-3.71.46-5.53,1.37-1.81.92-3.22,2.23-4.21,3.95h-.2v-4.29h-9.88v29.52h10.31v-16.58c0-1.64.47-3,1.42-4.07.95-1.07,2.15-1.6,3.62-1.6s2.67.44,3.48,1.3c.81.87,1.22,2.12,1.22,3.77v17.18h10.31v-19.7c0-3.26-.96-5.89-2.86-7.87-1.91-1.99-4.47-2.98-7.67-2.98Z"/>
  <path class="st0" d="M235.47,18.15h-.23c-.75-1.18-1.88-2.13-3.42-2.85-1.54-.72-3.21-1.07-5.02-1.07-4.14,0-7.53,1.47-10.17,4.41-2.63,2.94-3.95,6.76-3.95,11.45s1.27,8.65,3.82,11.47c2.55,2.81,5.8,4.22,9.75,4.22,2.06,0,3.92-.41,5.58-1.22,1.66-.81,2.89-1.88,3.7-3.22h.23v3.41h9.85V3.75h-10.13v14.4ZM233.8,35.26c-1.23,1.36-2.78,2.05-4.65,2.05s-3.4-.68-4.64-2.05c-1.24-1.37-1.86-3.11-1.86-5.23s.62-3.91,1.86-5.27c1.24-1.36,2.79-2.03,4.64-2.03s3.4.68,4.64,2.03c1.24,1.36,1.86,3.1,1.86,5.24s-.62,3.89-1.85,5.25Z"/>
  <path class="st0" d="M257.49,33.12c-1.72,0-3.17.59-4.35,1.76s-1.78,2.61-1.78,4.31.59,3.16,1.78,4.34,2.64,1.76,4.35,1.76,3.17-.58,4.37-1.76c1.19-1.17,1.79-2.62,1.79-4.34s-.6-3.13-1.79-4.31c-1.19-1.17-2.65-1.76-4.37-1.76Z"/>
  <path class="st0" d="M282.71,3.75l-15.78,41h11.11l2.24-6.84h13.58l2.24,6.84h11.37l-15.75-41h-9.02ZM282.67,30.63l2.79-8.5,1.52-5.21h.23l1.52,5.24,2.77,8.47h-8.82Z"/>
  <rect class="st0" x="311.77" y="3.75" width="10.59" height="41"/>
</svg>